<svg width="35" height="45" viewBox="0 0 35 45" fill="none" xmlns="http://www.w3.org/2000/svg">
<path fill-rule="evenodd" clip-rule="evenodd" d="M20.067 1.11297C15.3278 3.52102 4.64524 15.4076 1.16124 22.0682C-0.939432 26.0902 -0.683182 26.3207 6.10544 26.705L10.9472 26.9868C2.16034 42.3573 3.05694 40.7178 2.98004 40.8715C1.05874 44.1762 3.67174 46.3793 6.43844 43.7919C6.46404 43.7663 30.2115 25.3216 34.4641 19.199C34.9508 18.5073 34.8228 17.7132 33.7468 16.919C31.9792 15.6125 29.5968 15.2026 20.9124 14.4854C19.5546 14.3829 18.9399 14.2292 19.0423 14.0243C19.6828 12.4616 22.142 5.9034 23.3204 3.34169C24.7038 0.344426 24.5757 -1.19262 20.067 1.11297ZM18.2993 6.8513C18.0688 7.3893 15.2252 14.2036 15.0971 14.4854C14.4311 15.8175 14.8666 16.5092 16.5317 16.6885C22.0651 17.2777 24.2682 17.4826 26.497 17.5851C30.1859 17.7644 30.2116 17.6107 26.3177 21.5302C22.1677 25.7315 11.562 35.4662 11.3314 35.2356C11.1265 35.0307 14.5336 28.5238 15.4559 27.3198C17.121 25.1423 16.6086 24.8349 11.3058 24.8349C8.92334 24.8349 7.43754 24.7836 6.31034 24.7068C5.26004 24.6299 4.61954 23.5028 5.13194 22.5549C7.05324 19.0453 10.486 14.6647 16.1988 8.3884C18.8118 5.5704 18.8629 5.5192 18.2993 6.8513Z" fill="#000001"/>
</svg>
