<svg width="24" height="19" viewBox="0 0 24 19" fill="none" xmlns="http://www.w3.org/2000/svg">
<path d="M23.6202 10.0556C22.592 3.71499 18.1831 -0.943114 14.2573 0.162992C13.4316 0.39665 12.7773 0.941931 10.1444 3.66827C8.7735 5.08593 8.35285 5.42868 8.11919 5.35077C5.56425 4.35371 3.9596 5.60003 3.97513 8.59121C3.97513 10.1803 4.0531 10.6009 4.56719 12.2055C4.70741 12.6261 2.93135 14.2775 0.703582 16.6299C-1.08799 18.2657 0.797039 18.7642 3.49222 17.8918C8.13473 16.3962 7.4181 16.4586 9.0227 17.3621C11.6555 18.8421 15.083 19.3874 16.6409 18.5773C16.9525 18.4215 17.1238 18.0943 17.0926 17.7361C17.0926 17.7205 16.9525 16.1937 16.9525 16.2093C19.0868 15.3525 21.6573 14.48 22.8725 13.6076C24.0876 12.7196 23.9162 11.8628 23.6202 10.0556ZM3.47669 16.443C3.30529 16.443 5.34613 14.1996 5.48635 14.0438C5.51748 14.2308 5.95372 14.9318 6.57685 15.3525C6.59244 15.4304 3.75713 16.443 3.47669 16.443ZM19.2581 13.0312C18.3857 13.2337 15.6438 14.3242 14.6779 14.8695C13.9769 15.259 13.9457 15.3057 14.0392 15.8042C14.3819 17.7049 14.4754 17.5958 12.8241 17.1752C9.08507 16.2093 4.75413 8.87159 6.46782 6.39456C6.95073 5.69352 7.62063 6.58149 7.66741 7.99921C7.71413 9.49477 9.03829 11.9563 9.97304 12.5638C10.5183 12.9221 10.7987 12.486 10.6585 12.2055C8.85135 8.87165 9.14738 7.98362 9.27201 7.48512C9.27201 7.48512 13.2447 3.46574 13.5718 3.1074C14.7714 1.82996 15.8307 1.76765 16.9992 2.88933C19.1491 4.9769 20.8004 8.29518 21.2211 11.3331C21.3145 12.1432 20.6602 12.7196 19.2581 13.0312Z" fill="#006B99"/>
</svg>
