<svg width="36" height="34" viewBox="0 0 36 34" fill="none" xmlns="http://www.w3.org/2000/svg">
<path fill-rule="evenodd" clip-rule="evenodd" d="M26.8593 0.371934C25.056 1.18443 24.0849 2.76973 23.9462 5.10813C23.7679 8.23913 23.0544 9.30923 22.242 7.68423C19.2893 1.85823 9.14328 0.213434 8.11278 5.40533C7.99388 5.96023 7.97408 5.96023 6.68598 5.96023C1.01848 5.92053 -2.25119 17.0772 1.81118 22.606C2.08858 22.9826 1.69228 24.3103 0.523083 26.9062C-0.130817 28.3528 -0.051567 28.5906 1.09778 29.1059C2.14808 29.5815 2.48498 29.0861 4.58548 23.9338C4.90258 23.1609 4.90258 22.289 4.58548 21.5161C4.10988 20.3668 3.53518 19.0985 3.07948 18.2464C1.57338 15.2938 2.56418 11.1323 5.37818 8.63543C7.95428 6.35653 10.5899 8.23913 8.33078 10.7558C5.21958 14.2038 8.17228 18.3851 12.7499 17.0178C16.8519 15.809 17.0104 10.082 12.9679 8.99213C10.8277 8.41743 9.91608 5.40533 11.541 4.31543C15.5836 1.58073 20.617 7.18883 20.082 13.8471C19.8046 17.315 23.2923 15.7297 23.2923 13.3517C23.2923 12.7374 23.4508 12.4005 24.085 11.6673C25.4325 10.1018 26.0666 8.45713 26.3639 5.62333C26.6413 3.00753 30.0497 0.827733 31.0207 2.65083C31.6351 3.80023 30.664 9.94333 29.5741 11.707C28.7021 13.1338 25.6108 16.6413 24.6199 17.315C23.3319 18.187 23.4707 18.94 24.9965 19.1976C25.7496 19.3165 25.8685 19.2769 27.2754 18.1077C30.783 15.1947 31.8927 13.7679 32.725 11.0332C33.3195 9.09123 34.1914 9.52713 34.2112 11.5484C34.231 15.6901 29.8912 20.5253 25.7297 22.2295C24.7389 22.6457 24.6794 23.1015 25.5315 23.7356C26.7998 24.667 29.0588 23.696 31.6548 21.1C33.2798 19.475 33.3591 19.4354 33.1807 20.0893C32.2097 23.8545 29.0787 26.9657 25.0956 28.1349C22.46 28.9077 20.0028 29.4626 18.1598 29.7004C17.9022 29.7796 16.3367 29.7202 15.0288 31.1073C13.1066 33.1484 16.0593 34.7734 17.0699 33.1484C17.823 31.9198 18.0607 31.8009 19.5272 31.7811C20.9738 31.7811 21.053 31.7613 25.155 30.6119C28.6427 29.6409 30.7037 28.6303 32.1899 27.1837C35.3209 24.1121 36.6288 19.6732 35.0039 17.533C34.6472 17.0574 34.6471 17.0376 35.2218 15.7892C36.391 13.2923 36.1136 10.0027 34.5679 8.14003C34.013 7.46623 33.9734 7.28793 33.914 5.66293C33.8347 1.81853 30.0101 -1.05484 26.8593 0.371934ZM12.6508 10.2009C14.2956 11.0332 13.3246 15.3334 11.4024 15.809C10.7286 15.9873 7.73628 14.4416 10.0746 11.2116C11.1447 9.72533 11.4618 9.58663 12.6508 10.2009Z" fill="#000001"/>
</svg>
